<mxfile host="Electron" modified="2023-11-06T13:42:45.371Z" agent="Mozilla/5.0 (Windows NT 10.0; Win64; x64) AppleWebKit/537.36 (KHTML, like Gecko) draw.io/21.6.8 Chrome/114.0.5735.289 Electron/25.5.0 Safari/537.36" etag="t25lZNyijoF4ivQPB7K_" version="21.6.8" type="device">
  <diagram name="PÃ¡gina-1" id="GBsqkeEp2_bvaqs6tHh2">
    <mxGraphModel dx="1418" dy="820" grid="1" gridSize="10" guides="1" tooltips="1" connect="1" arrows="1" fold="1" page="1" pageScale="1" pageWidth="827" pageHeight="1169" math="0" shadow="0">
      <root>
        <mxCell id="0" />
        <mxCell id="1" parent="0" />
        <mxCell id="5ED3BaB5KB7Zz_nchKes-1" value="" style="whiteSpace=wrap;html=1;aspect=fixed;fillColor=#33FF33;strokeColor=none;opacity=50;" vertex="1" parent="1">
          <mxGeometry x="399" y="340" width="30" height="30" as="geometry" />
        </mxCell>
      </root>
    </mxGraphModel>
  </diagram>
</mxfile>
